<svg width="26" height="25" viewBox="0 0 26 25" fill="none" xmlns="http://www.w3.org/2000/svg">
<path d="M24.1573 4.51368L24.1575 4.51417C25.5183 7.3561 25.009 10.6197 22.3735 14.3163L22.3723 14.3179C20.287 17.2618 17.2798 20.2166 12.8795 23.7014L12.8784 23.7023C12.8524 23.7229 12.8223 23.7329 12.7929 23.7329C12.7634 23.7329 12.7333 23.7229 12.7073 23.7023L12.7064 23.7015C8.30025 20.2103 5.29869 17.2299 3.2115 14.3152C0.568626 10.619 0.0595731 7.35579 1.42026 4.51417L1.42049 4.51368C2.35057 2.5672 5.09256 0.899148 8.37387 1.85809C9.93985 2.31954 11.3088 3.30965 12.2554 4.66976L12.7889 5.43638L13.3224 4.66976C14.2691 3.30946 15.6383 2.31925 17.2046 1.85789L17.2063 1.85739C20.4755 0.884695 23.226 2.56467 24.1573 4.51368Z" stroke="#BAB8B8" stroke-width="1.3"/>
</svg>
