<svg width="16" height="17" viewBox="0 0 16 17" fill="none" xmlns="http://www.w3.org/2000/svg">
<path d="M10.5 10.624C10.3674 10.624 10.2402 10.6767 10.1464 10.7705C10.0527 10.8642 10 10.9914 10 11.124C10 11.2566 10.0527 11.3838 10.1464 11.4776C10.2402 11.5713 10.3674 11.624 10.5 11.624H12.5C12.6326 11.624 12.7598 11.5713 12.8536 11.4776C12.9473 11.3838 13 11.2566 13 11.124C13 10.9914 12.9473 10.8642 12.8536 10.7705C12.7598 10.6767 12.6326 10.624 12.5 10.624H10.5ZM1 6.12402C1 5.46098 1.26339 4.8251 1.73223 4.35626C2.20107 3.88742 2.83696 3.62402 3.5 3.62402H12.5C13.163 3.62402 13.7989 3.88742 14.2678 4.35626C14.7366 4.8251 15 5.46098 15 6.12402V11.124C15 11.7871 14.7366 12.4229 14.2678 12.8918C13.7989 13.3606 13.163 13.624 12.5 13.624H3.5C2.83696 13.624 2.20107 13.3606 1.73223 12.8918C1.26339 12.4229 1 11.7871 1 11.124V6.12402ZM14 6.62402V6.12402C14 5.7262 13.842 5.34467 13.5607 5.06336C13.2794 4.78206 12.8978 4.62402 12.5 4.62402H3.5C3.10218 4.62402 2.72064 4.78206 2.43934 5.06336C2.15804 5.34467 2 5.7262 2 6.12402V6.62402H14ZM2 7.62402V11.124C2 11.5218 2.15804 11.9034 2.43934 12.1847C2.72064 12.466 3.10218 12.624 3.5 12.624H12.5C12.8978 12.624 13.2794 12.466 13.5607 12.1847C13.842 11.9034 14 11.5218 14 11.124V7.62402H2Z" fill="#0B0A0A"/>
</svg>
