<svg width="16" height="17" viewBox="0 0 16 17" fill="none" xmlns="http://www.w3.org/2000/svg">
<path d="M12.4239 3.02521C12.7422 3.02521 13.0474 3.15164 13.2725 3.37669C13.4975 3.60173 13.6239 3.90695 13.6239 4.22521V5.34201C13.6239 5.71048 13.522 6.07177 13.3296 6.38601C13.1372 6.70026 12.8617 6.95523 12.5335 7.12281L9.18314 8.83481C9.77254 9.10209 10.2526 9.56318 10.5435 10.1413C10.8343 10.7194 10.9183 11.3798 10.7816 12.0123C10.6449 12.6449 10.2956 13.2115 9.792 13.6179C9.28836 14.0244 8.66071 14.246 8.01354 14.246C7.36638 14.246 6.73873 14.0244 6.23509 13.6179C5.73144 13.2115 5.38219 12.6449 5.24547 12.0123C5.10874 11.3798 5.19279 10.7194 5.48363 10.1413C5.77447 9.56318 6.25455 9.10209 6.84394 8.83481L3.49274 7.12281C3.18709 6.96672 2.92675 6.7346 2.73677 6.44878C2.54678 6.16296 2.43354 5.83306 2.40794 5.49081L2.40234 5.34201V4.22441C2.40234 3.90615 2.52877 3.60093 2.75382 3.37589C2.97886 3.15084 3.28408 3.02441 3.60234 3.02441L12.4239 3.02521ZM8.01354 9.38361C7.74201 9.37599 7.4717 9.42289 7.2186 9.52154C6.9655 9.62019 6.73475 9.76859 6.53999 9.95796C6.34523 10.1473 6.19042 10.3738 6.08471 10.6241C5.979 10.8743 5.92453 11.1432 5.92453 11.4148C5.92453 11.6865 5.979 11.9553 6.08471 12.2056C6.19042 12.4558 6.34523 12.6823 6.53999 12.8717C6.73475 13.061 6.9655 13.2094 7.2186 13.3081C7.4717 13.4067 7.74201 13.4536 8.01354 13.446C8.54538 13.4355 9.05187 13.2168 9.42425 12.8369C9.79664 12.4571 10.0052 11.9464 10.0052 11.4144C10.0052 10.8825 9.79664 10.3717 9.42425 9.9919C9.05187 9.61205 8.54538 9.39337 8.01354 9.38281M10.0439 3.82441H5.98154V7.49481L7.83194 8.44041C7.88829 8.46921 7.95067 8.48422 8.01394 8.48422C8.07722 8.48422 8.1396 8.46921 8.19594 8.44041L10.0447 7.49481L10.0439 3.82441ZM5.18074 3.82441H3.60234C3.49626 3.82441 3.39452 3.86656 3.3195 3.94157C3.24449 4.01659 3.20234 4.11833 3.20234 4.22441V5.34121L3.20794 5.45321C3.2269 5.65429 3.2963 5.84732 3.40972 6.01444C3.52313 6.18155 3.67689 6.31734 3.85674 6.40921L5.18074 7.08601V3.82441ZM12.4239 3.82441H10.8439V7.08601L12.1695 6.40921C12.3664 6.30872 12.5317 6.15582 12.6471 5.96737C12.7626 5.77891 12.8238 5.56223 12.8239 5.34121V4.22441C12.8239 4.11833 12.7818 4.01659 12.7068 3.94157C12.6318 3.86656 12.53 3.82441 12.4239 3.82441Z" fill="#0B0A0A"/>
</svg>
