<svg width="25" height="26" viewBox="0 0 25 26" fill="none" xmlns="http://www.w3.org/2000/svg">
<g clip-path="url(#clip0_6445_16725)">
<path d="M22.4905 24.6879C23.2142 24.5287 23.6468 23.7285 23.2863 23.0446C22.4918 21.5397 21.2412 20.2162 19.6418 19.2083C17.5809 17.9098 15.0546 17.2051 12.4589 17.2051C9.86315 17.2051 7.33689 17.9084 5.27603 19.2083C3.67663 20.2162 2.42595 21.5397 1.6315 23.0446C1.27098 23.7285 1.7036 24.5287 2.42726 24.6879C9.04349 26.1441 15.873 26.1441 22.4892 24.6879" fill="#BAB8B8"/>
<path d="M21.1826 24.1087C21.8118 23.9784 22.188 23.3232 21.8745 22.7633C21.1837 21.5312 20.0962 20.4477 18.7054 19.6225C16.9133 18.5593 14.7166 17.9824 12.4594 17.9824C10.2023 17.9824 8.0055 18.5582 6.21344 19.6225C4.82266 20.4477 3.73512 21.5312 3.04429 22.7633C2.73079 23.3232 3.10699 23.9784 3.73626 24.1087C9.4895 25.301 15.4282 25.301 21.1814 24.1087" fill="#FAFAFA"/>
<path d="M12.4583 16.1471C16.1125 16.1471 19.0748 13.1848 19.0748 9.53057C19.0748 5.87638 16.1125 2.91406 12.4583 2.91406C8.80411 2.91406 5.8418 5.87638 5.8418 9.53057C5.8418 13.1848 8.80411 16.1471 12.4583 16.1471Z" fill="#BAB8B8"/>
<path d="M12.5116 15.2995C15.6688 15.2995 18.2283 12.7401 18.2283 9.58288C18.2283 6.42565 15.6688 3.86621 12.5116 3.86621C9.35436 3.86621 6.79492 6.42565 6.79492 9.58288C6.79492 12.7401 9.35436 15.2995 12.5116 15.2995Z" fill="#FAFAFA"/>
</g>
<defs>
<clipPath id="clip0_6445_16725">
<rect width="23.8194" height="25.725" fill="white" transform="translate(0.550781 0.0556641)"/>
</clipPath>
</defs>
</svg>
