<svg id="m7x3xpdh06787056" viewBox="0 0 107.7224 153.512" xmlns="http://www.w3.org/2000/svg" xmlns:xlink="http://www.w3.org/1999/xlink"><g id="m7x3xpdh06787056_translate"><g transform="matrix(1,0,0,1,0,0)"><g id="m7x3xpdh06787056" opacity="1" style="mix-blend-mode:normal"><g><g><defs><mask id="m7x3xpdi01877286_mask" style="mask-type:alpha" x="-50%" y="-50%" width="200%" height="200%"><g id="m7x3xpdi01877286_translate"><g transform="matrix(1,0,0,1,0,0)"><g id="m7x3xpdi01877286" opacity="1" style="mix-blend-mode:normal"><g><g><g id="m7x3xpdk40310189_translate"><g transform="matrix(1,0,0,1,0,0)"><g id="m7x3xpdk40310189" opacity="1" style="mix-blend-mode:normal"><g><g><g id="m7x3xpdl66781893_translate"><g transform="matrix(1,0,0,1,0,0)"><g id="m7x3xpdl66781893" opacity="1" style="mix-blend-mode:normal"><g><g><path id="m7x3xpdl66781893_fill_path" d="M107.72236,101.25232c0,24.70317 -10.84286,40.80338 -32.52144,48.30065c-7.56147,2.63938 -15.69361,3.95907 -24.38929,3.95907c-18.25452,0 -35.18936,-5.5213 -50.81163,-16.57816l16.25715,-30.59541c11.43494,10.34352 22.6202,15.50814 33.54866,15.50814c4.92922,0 9.10943,-1.14849 12.54062,-3.45973c4.00187,-2.59658 5.99924,-6.26317 5.99924,-11.02119c0,-4.32288 -2.21137,-7.92527 -6.64125,-10.80719c-3.28852,-2.16144 -8.82409,-4.35855 -16.60669,-6.59132c-9.43043,-2.77492 -15.35834,-4.70095 -17.78371,-5.77097c-3.8592,-1.6407 -7.14059,-3.5596 -9.85844,-5.77097c-7.78974,-6.40585 -11.67747,-16.10022 -11.67747,-29.06171c0,-12.9615 4.0304,-24.7531 12.08408,-33.65566c9.41617,-10.47192 21.96392,-15.70788 37.6504,-15.70788c15.68648,0 31.20175,3.95907 46.31755,11.87008l-15.18713,29.52539c-8.29621,-6.49145 -16.65663,-9.73717 -25.09551,-9.73717c-4.07321,0 -7.72553,1.03435 -10.94272,3.11019c-3.6452,2.36117 -5.47136,5.51416 -5.47136,9.4447c0,3.93054 2.38971,7.19053 7.18339,9.98684c2.14004,1.29116 8.57442,3.50966 19.28887,6.65552c13.4323,3.93054 23.00541,9.49463 28.71931,16.70656c4.92922,6.14191 7.39739,14.03152 7.39739,23.66882z" fill-rule="nonzero" fill="rgb(255, 255, 255)" fill-opacity="1" style="mix-blend-mode:normal"></path></g></g></g></g></g></g></g></g></g></g></g></g></g></g></g></mask></defs><g mask="url(#m7x3xpdi01877286_mask)"><g id="m7x3xpdu20091704_translate"><g transform="matrix(-0.999999837137824,-0.0005707226344194449,-0.000570665562156003,0.9998998371541102,300.95,128.53)"><g id="m7x3xpdu20091704" opacity="1" style="mix-blend-mode:normal"><g><g><g style="mix-blend-mode:normal"><defs><linearGradient id="m7x3xpdu20091704pf0" x1="0" y1="0.5" x2="1" y2="0.5" gradientTransform="matrix(-0.5825019736163285,0.01781222556739335,-0.0178122155988863,-2.2963580425879133,0.8096996730193459,1.2794171484244892)" gradientUnits="objectBoundingBox"><stop offset="0%" stop-opacity="1" stop-color="rgb(216, 54, 148)"></stop><stop offset="100%" stop-opacity="1" stop-color="rgb(0, 57, 199)"></stop></linearGradient></defs><path id="m7x3xpdu20091704_fill_path" d="M0.11297,14.69531l-0.11297,156.60427l431.78256,0.19365l0.11297,-156.60428c0,0 -31.93681,13.02832 -53.98252,13.01838c-22.0455,-0.00994 -53.96313,-13.0668 -53.96313,-13.0668c0,0 -31.91763,-13.05686 -53.96313,-13.0668c-22.04571,-0.00994 -53.98252,13.0184 -53.98252,13.0184c0,0 -31.93655,13.02826 -53.98212,13.01839c-22.04565,-0.00987 -53.96354,-13.06681 -53.96354,-13.06681c0,0 -31.6591,-14.73374 -53.96233,-14.74371c-22.30311,-0.00997 -53.98327,14.6953 -53.98327,14.6953z" fill-rule="nonzero" fill="url(#m7x3xpdu20091704pf0)"></path></g><path id="m7x3xpdu20091704_fill_path" d="M0.11297,14.69531l-0.11297,156.60427l431.78256,0.19365l0.11297,-156.60428c0,0 -31.93681,13.02832 -53.98252,13.01838c-22.0455,-0.00994 -53.96313,-13.0668 -53.96313,-13.0668c0,0 -31.91763,-13.05686 -53.96313,-13.0668c-22.04571,-0.00994 -53.98252,13.0184 -53.98252,13.0184c0,0 -31.93655,13.02826 -53.98212,13.01839c-22.04565,-0.00987 -53.96354,-13.06681 -53.96354,-13.06681c0,0 -31.6591,-14.73374 -53.96233,-14.74371c-22.30311,-0.00997 -53.98327,14.6953 -53.98327,14.6953z" fill-rule="nonzero" fill="rgb(0, 0, 0)" fill-opacity="0.4" style="mix-blend-mode:normal"></path></g></g></g></g></g><g id="m7x3xpdz64997987_translate"><g transform="matrix(0.9999998381323998,-0.0005689773054504857,0.0005689773054504857,0.9999998381323998,-90.29,153.81)"><g id="m7x3xpdz64997987" opacity="1" style="mix-blend-mode:normal"><g><g><g style="mix-blend-mode:normal"><defs><linearGradient id="m7x3xpdz64997987pf0" x1="0" y1="0.5" x2="1" y2="0.5" gradientTransform="matrix(0.6623913667038477,0.02311101591643633,-0.023110999729413394,3.2791057237219157,0.31110782334205506,-1.5301623083457117)" gradientUnits="objectBoundingBox"><stop offset="0%" stop-opacity="1" stop-color="rgb(216, 54, 148)"></stop><stop offset="100%" stop-opacity="1" stop-color="rgb(0, 57, 199)"></stop></linearGradient></defs><path id="m7x3xpdz64997987_fill_path" d="M0.11294,14.70199l-0.11294,156.67554l431.66591,0.19374l0.11296,-156.67556c0,0 -31.9282,13.03425 -53.96796,13.02431c-22.03955,-0.00994 -53.94856,-13.07274 -53.94856,-13.07274c0,0 -31.90899,-13.0628 -53.94854,-13.07274c-22.03976,-0.00994 -53.96794,13.02432 -53.96794,13.02432c0,0 -31.92794,13.03419 -53.96754,13.02432c-22.0397,-0.00987 -53.94895,-13.07275 -53.94895,-13.07275c0,0 -31.65055,-14.74044 -53.94775,-14.75042c-22.29709,-0.00998 -53.96869,14.70199 -53.96869,14.70199z" fill-rule="nonzero" fill="url(#m7x3xpdz64997987pf0)"></path></g></g></g></g></g></g></g></g></g></g></g></g><animateTransform href="#m7x3xpdu20091704_translate" attributeName="transform" type="translate" values="0 0;-244.1328 -147.9414;-244.1328 -147.9414" dur="6s" repeatCount="indefinite" calcMode="spline" keyTimes="0;0.5;1" keySplines="0 0 1 1;0 0 1 1" additive="sum" fill="freeze"></animateTransform><animate href="#m7x3xpdu20091704" attributeName="opacity" values="1;0;0" dur="6s" repeatCount="indefinite" calcMode="spline" keyTimes="0;0.5;1" keySplines="0 0 1 1;0 0 1 1" additive="replace" fill="freeze"></animate><animateTransform href="#m7x3xpdz64997987_translate" attributeName="transform" type="translate" values="0 0;-91.4101 -171.5683;-91.4101 -171.5683" dur="6s" repeatCount="indefinite" calcMode="spline" keyTimes="0;0.5;1" keySplines="0 0 1 1;0 0 1 1" additive="sum" fill="freeze"></animateTransform></svg>