<svg width="16" height="17" viewBox="0 0 16 17" fill="none" xmlns="http://www.w3.org/2000/svg">
<g clip-path="url(#clip0_519_7813)">
<path d="M7.99887 0.793945C10.4529 0.793945 12.6655 2.50395 12.6655 4.79395V7.81994C12.6655 8.24794 12.7915 8.66595 13.0289 9.02194L14.4955 11.2206C14.5974 11.373 14.6559 11.5501 14.6649 11.7332C14.6738 11.9162 14.6329 12.0982 14.5464 12.2598C14.4599 12.4214 14.3312 12.5564 14.1739 12.6505C14.0167 12.7446 13.8368 12.7942 13.6535 12.7939H10.3322C10.3322 13.1004 10.2719 13.4038 10.1546 13.6869C10.0373 13.97 9.86546 14.2272 9.64879 14.4439C9.43212 14.6605 9.17489 14.8324 8.8918 14.9497C8.60871 15.0669 8.30529 15.1273 7.99887 15.1273C7.69245 15.1273 7.38904 15.0669 7.10594 14.9497C6.82285 14.8324 6.56563 14.6605 6.34896 14.4439C6.13229 14.2272 5.96041 13.97 5.84315 13.6869C5.72589 13.4038 5.66554 13.1004 5.66554 12.7939H2.34487C2.1617 12.7941 1.98192 12.7445 1.8247 12.6505C1.66749 12.5565 1.53873 12.4216 1.45217 12.2602C1.36561 12.0988 1.32448 11.9169 1.33317 11.7339C1.34187 11.5509 1.40006 11.3738 1.50154 11.2213L2.9682 9.02194C3.20555 8.666 3.3322 8.24776 3.3322 7.81994V4.79395C3.3322 2.50395 5.5442 0.793945 7.99887 0.793945ZM4.3322 4.79395V7.81994C4.33238 8.44511 4.1475 9.05634 3.80087 9.57661L2.3342 11.7753L2.3322 11.7819L2.33287 11.7866L2.33554 11.7906L2.33954 11.7933L2.3442 11.7939H13.6535L13.6582 11.7933L13.6622 11.7906L13.6649 11.7866L13.6655 11.7826L13.6635 11.7759L12.1975 9.57661C11.8507 9.05642 11.6656 8.44518 11.6655 7.81994V4.79395C11.6655 3.21795 10.0769 1.79395 7.99887 1.79395C5.92087 1.79395 4.3322 3.21795 4.3322 4.79395ZM9.3322 12.7939H6.66554C6.66554 13.1476 6.80601 13.4867 7.05606 13.7368C7.30611 13.9868 7.64525 14.1273 7.99887 14.1273C8.35249 14.1273 8.69163 13.9868 8.94168 13.7368C9.19173 13.4867 9.3322 13.1476 9.3322 12.7939Z" fill="#0B0A0A"/>
</g>
<defs>
<clipPath id="clip0_519_7813">
<rect width="16" height="16" fill="white" transform="translate(0 0.126953)"/>
</clipPath>
</defs>
</svg>
