<svg xmlns="http://www.w3.org/2000/svg" viewBox="0 0 24 24" id="remove-user">
  <g>
    <path d="M8 12A4 4 0 1 0 4 8 4 4 0 0 0 8 12zM8 6A2 2 0 1 1 6 8 2 2 0 0 1 8 6zM11 14H5a3 3 0 0 0-3 3v2a1 1 0 0 0 2 0V17a1 1 0 0 1 1-1h6a1 1 0 0 1 1 1v2a1 1 0 0 0 2 0V17A3 3 0 0 0 11 14zM20.41 12l1.42-1.41a1 1 0 0 0-1.42-1.42L19 10.59 17.59 9.17a1 1 0 0 0-1.42 1.42L17.59 12l-1.42 1.41a1 1 0 0 0 0 1.42 1 1 0 0 0 .71.29 1 1 0 0 0 .71-.29L19 13.41l1.41 1.42a1 1 0 0 0 .71.29 1 1 0 0 0 .71-.29 1 1 0 0 0 0-1.42z"></path>
  </g>
</svg>
