<svg width="24" height="24" viewBox="0 0 24 24" fill="none" xmlns="http://www.w3.org/2000/svg">
<path d="M1.6843 1.65598C1.18623 2.15405 0.906415 2.82958 0.906415 3.53396V21.7439C0.906415 22.6766 2.08213 23.0913 2.66777 22.3611L1.6843 1.65598ZM1.6843 1.65598C2.18237 1.15791 2.8579 0.878095 3.56228 0.878095M1.6843 1.65598L3.56228 0.878095M3.56228 0.878095H20.2359M3.56228 0.878095H20.2359M20.2359 0.878095C20.9403 0.878095 21.6158 1.15791 22.1139 1.65598M20.2359 0.878095L22.1139 1.65598M22.1139 1.65598C22.6119 2.15405 22.8918 2.82958 22.8918 3.53396M22.1139 1.65598L22.8918 3.53396M22.8918 3.53396V15.4437M22.8918 3.53396V15.4437M22.8918 15.4437C22.8918 16.1481 22.6119 16.8236 22.1139 17.3217M22.8918 15.4437L22.1139 17.3217M22.1139 17.3217C21.6158 17.8197 20.9403 18.0996 20.2359 18.0996M22.1139 17.3217L20.2359 18.0996M20.2359 18.0996H7.08875M20.2359 18.0996H7.08875M7.08875 18.0996C6.44782 18.0996 5.84239 18.3913 5.44273 18.8918L7.08875 18.0996ZM5.44229 18.8923L2.66809 22.3607L5.44229 18.8923Z" stroke="#BAB8B8" stroke-width="1.23861"/>
</svg>
