<svg width="18" height="25" viewBox="0 0 18 25" fill="none" xmlns="http://www.w3.org/2000/svg">
<mask id="mask0_6925_21605" style="mask-type:alpha" maskUnits="userSpaceOnUse" x="0" y="0" width="18" height="25">
<path d="M17.543 16.4893C17.543 20.5123 15.7772 23.1343 12.2467 24.3552C11.0153 24.7851 9.69099 25 8.27486 25C5.30204 25 2.54414 24.1008 0 22.3002L2.64754 17.3176C4.50976 19.0021 6.33132 19.8432 8.11106 19.8432C8.9138 19.8432 9.59456 19.6561 10.1533 19.2797C10.8051 18.8569 11.1303 18.2598 11.1303 17.4849C11.1303 16.7809 10.7702 16.1942 10.0488 15.7249C9.51324 15.3729 8.61176 15.0151 7.34433 14.6515C5.80855 14.1996 4.84317 13.8859 4.44819 13.7117C3.8197 13.4445 3.28532 13.132 2.8427 12.7718C1.57412 11.7286 0.940985 10.1499 0.940985 8.03903C0.940985 5.92821 1.59735 4.0079 2.90892 2.55809C4.44238 0.852695 6.48583 0 9.04043 0C11.595 0 14.1217 0.644749 16.5834 1.93309L14.1101 6.7414C12.7591 5.68425 11.3975 5.15567 10.0232 5.15567C9.3599 5.15567 8.7651 5.32412 8.24117 5.66217C7.64754 6.0467 7.35014 6.56018 7.35014 7.20028C7.35014 7.84038 7.73931 8.37128 8.51998 8.82667C8.86849 9.03694 9.91636 9.39823 11.6612 9.91055C13.8487 10.5507 15.4078 11.4568 16.3383 12.6313C17.141 13.6315 17.543 14.9164 17.543 16.4858V16.4893Z" fill="white"/>
</mask>
<g mask="url(#mask0_6925_21605)">
<rect width="18" height="25" fill="white"/>
<path d="M66.4431 24.4104L66.4392 -1.09315C66.4392 -1.09315 61.2814 -3.4909 57.6492 -3.49134C54.0171 -3.49178 48.8599 -1.09527 48.8599 -1.09527C48.8599 -1.09527 43.6607 1.02814 40.0705 1.02771C36.4803 1.02727 31.2805 -1.09739 31.2805 -1.09739C31.2805 -1.09739 26.0807 -3.22206 22.4905 -3.22248C18.9003 -3.2229 13.7012 -1.0995 13.7012 -1.0995C13.7012 -1.0995 8.50208 1.0239 4.91189 1.02347C1.32166 1.02305 -3.87816 -1.10162 -3.87816 -1.10162L-3.87426 24.402L66.4431 24.4104Z" fill="url(#paint0_linear_6925_21605)"/>
<path d="M66.4431 24.4104L66.4392 -1.09315C66.4392 -1.09315 61.2814 -3.4909 57.6492 -3.49134C54.0171 -3.49178 48.8599 -1.09527 48.8599 -1.09527C48.8599 -1.09527 43.6607 1.02814 40.0705 1.02771C36.4803 1.02727 31.2805 -1.09739 31.2805 -1.09739C31.2805 -1.09739 26.0807 -3.22206 22.4905 -3.22248C18.9003 -3.2229 13.7012 -1.0995 13.7012 -1.0995C13.7012 -1.0995 8.50208 1.0239 4.91189 1.02347C1.32166 1.02305 -3.87816 -1.10162 -3.87816 -1.10162L-3.87426 24.402L66.4431 24.4104Z" fill="black" fill-opacity="0.4"/>
<path d="M-29.574 25.0179L-29.5701 -0.497339C-29.5701 -0.497339 -24.4136 -2.89617 -20.7825 -2.89661C-17.1513 -2.89705 -11.9955 -0.499448 -11.9955 -0.499448C-11.9955 -0.499448 -6.79775 1.62493 -3.2085 1.6245C0.380728 1.62407 5.5791 -0.501557 5.5791 -0.501557C5.5791 -0.501557 10.7775 -2.62719 14.3668 -2.62761C17.956 -2.62804 23.1537 -0.503669 23.1537 -0.503669C23.1537 -0.503669 28.3514 1.6207 31.9406 1.62028C35.5299 1.61986 40.7283 -0.505778 40.7283 -0.505778L40.7244 25.0094L-29.574 25.0179Z" fill="url(#paint1_linear_6925_21605)"/>
</g>
<defs>
<linearGradient id="paint0_linear_6925_21605" x1="10.1325" y1="0.14689" x2="51.0968" y2="0.970434" gradientUnits="userSpaceOnUse">
<stop stop-color="#D83694"/>
<stop offset="1" stop-color="#0039C7"/>
</linearGradient>
<linearGradient id="paint1_linear_6925_21605" x1="-8.52455" y1="0.152899" x2="38.0499" y2="0.95249" gradientUnits="userSpaceOnUse">
<stop stop-color="#D83694"/>
<stop offset="1" stop-color="#0039C7"/>
</linearGradient>
</defs>
</svg>
