<svg width="26" height="24" viewBox="0 0 26 24" fill="none" xmlns="http://www.w3.org/2000/svg">
<path d="M24.0127 4.1152C22.9952 1.98567 20.0641 0.243322 16.6545 1.25775C15.0253 1.73766 13.6038 2.76684 12.6224 4.17715C11.6409 2.76684 10.2194 1.73766 8.59018 1.25775C5.17307 0.25881 2.24955 1.98567 1.23201 4.1152C-0.195579 7.09654 0.396719 10.4496 2.99372 14.0814C5.02879 16.9234 7.93713 19.804 12.1592 23.1493C12.2926 23.2555 12.4569 23.3131 12.6262 23.3131C12.7954 23.3131 12.9597 23.2555 13.0932 23.1493C17.3076 19.8118 20.2235 16.9543 22.2586 14.0814C24.848 10.4496 25.4403 7.09654 24.0127 4.1152Z" fill="black"/>
<path d="M12.9115 12.529C12.8682 12.4382 12.7432 12.3639 12.5979 12.4072C12.5284 12.4276 12.4678 12.4715 12.426 12.5316C12.3842 12.4715 12.3236 12.4276 12.2541 12.4072C12.1085 12.3646 11.9839 12.4382 11.9405 12.529C11.8796 12.6561 11.9049 12.799 12.0156 12.9538C12.1023 13.0749 12.2263 13.1977 12.4063 13.3403C12.412 13.3449 12.419 13.3473 12.4262 13.3473C12.4334 13.3473 12.4404 13.3449 12.4461 13.3403C12.6257 13.1981 12.75 13.0763 12.8368 12.9538C12.9471 12.799 12.9724 12.6561 12.9115 12.529Z" fill="#0B0A0A"/>
</svg>
