<svg width="26" height="27" viewBox="0 0 26 27" fill="none" xmlns="http://www.w3.org/2000/svg">
<path d="M23.1441 25.8537C23.9036 25.6866 24.3577 24.8467 23.9793 24.1289C23.1454 22.5495 21.8328 21.1604 20.1541 20.1026C17.9911 18.7396 15.3396 18 12.6152 18C9.89084 18 7.23937 18.7381 5.07636 20.1026C3.39769 21.1604 2.08503 22.5495 1.2512 24.1289C0.872812 24.8467 1.32688 25.6866 2.08641 25.8537C9.03055 27.3821 16.1985 27.3821 23.1427 25.8537" fill="#BAB8B8"/>
<path d="M21.7707 25.2454C22.4312 25.1085 22.826 24.4209 22.497 23.8333C21.7719 22.5401 20.6305 21.4029 19.1708 20.5368C17.2899 19.4209 14.9843 18.8154 12.6152 18.8154C10.2462 18.8154 7.94057 19.4198 6.05969 20.5368C4.59998 21.4029 3.45854 22.5401 2.73347 23.8333C2.40443 24.4209 2.79927 25.1085 3.45973 25.2454C9.49812 26.4967 15.7312 26.4967 21.7695 25.2454" fill="#FAFAFA"/>
<path d="M12.6144 16.8889C16.4497 16.8889 19.5588 13.7798 19.5588 9.94444C19.5588 6.10913 16.4497 3 12.6144 3C8.77906 3 5.66992 6.10913 5.66992 9.94444C5.66992 13.7798 8.77906 16.8889 12.6144 16.8889Z" fill="#BAB8B8"/>
<path d="M12.6699 16C15.9836 16 18.6699 13.3137 18.6699 10C18.6699 6.68629 15.9836 4 12.6699 4C9.35621 4 6.66992 6.68629 6.66992 10C6.66992 13.3137 9.35621 16 12.6699 16Z" fill="#FAFAFA"/>
</svg>
